:SAMPLES-PER-SECOND 30
:FULLY-SPECIFIED
:DEGREES
126
root  -41.3514 40.5489 24.8686 -6.82843 4.43887 -3.19394
RightUpLeg  -0.0460709 -10.1613 -0.428326
RightLeg  16.9234 -0.301492 2.64772
RightFoot  -6.96584 0.087925 -3.52358
RightToes  -1.74624e-010 0 -3.6325e-017
Spine  3.44276 -0.111562 10.0915
Spine1  9.37403 0.212439 -0.285559
HEad  -10.0487 3.87589 -5.45589
LeftShoulder1  9.22265 -12.7386 -49.5702
LeftArm  -2.9521 19.3684 -28.5927
LeftForeArm  22.6101 -17.6691 -4.66048
LeftHand  -0.244104 0.0205437 5.32207
RightShoulder  6.22503 9.85624 40.4318
RightArm  3.71082 -4.92288 30.8455
RightForeArm  -4.9568 33.4845 7.72341
RightHand  -0.948229 1.23415 -16.6887
LeftUpLeg  -19.2135 11.316 1.15018
LeftLeg  21.7457 -1.65712 -0.414015
LeftFoot  3.50777 0.506268 -4.05448
LeftToes  1.71891e-010 -1.5102e-010 2.10556e-011
127
root  -41.2159 40.5177 26.0323 -7.06366 3.47791 -3.09494
RightUpLeg  2.11568 -10.0447 -0.816131
RightLeg  17.0325 0.686056 2.58987
RightFoot  -8.96831 0.00686766 -3.24188
RightToes  -1.74624e-010 0 -3.6325e-017
Spine  2.59602 0.107044 10.5129
Spine1  10.3722 0.648203 -1.30439
HEad  -9.99323 4.11682 -5.40687
LeftShoulder1  9.28549 -12.7561 -49.853
LeftArm  -4.96911 20.5007 -28.1451
LeftForeArm  24.5639 -14.3239 -5.43014
LeftHand  -0.244104 0.0205437 5.32207
RightShoulder  6.2794 9.89468 40.6888
RightArm  3.83091 -4.41063 31.7085
RightForeArm  -4.75228 32.9249 7.55978
RightHand  -0.973819 1.39975 -16.7264
LeftUpLeg  -16.6182 8.83005 1.83951
LeftLeg  11.5547 -2.33079 -0.861563
LeftFoot  5.08756 0.546219 -3.99303
LeftToes  1.71891e-010 -1.5102e-010 2.10556e-011
128
root  -41.0371 40.3855 27.1938 -7.33759 2.51989 -3.41939
RightUpLeg  3.90654 -10.9645 -1.08985
RightLeg  18.0055 2.55129 2.64775
RightFoot  -10.8976 -0.0632147 -2.87936
RightToes  -1.74624e-010 0 -3.6325e-017
Spine  1.7371 0.211412 11.2018
Spine1  11.2035 0.964195 -2.19397
HEad  -9.64003 4.46843 -5.2596
LeftShoulder1  9.30617 -12.7507 -49.9797
LeftArm  -7.34116 21.8537 -28.1514
LeftForeArm  26.336 -11.2059 -5.75522
LeftHand  -0.244104 0.0205437 5.32207
RightShoulder  6.32372 9.87233 41.0745
RightArm  4.8966 -4.33806 32.2529
RightForeArm  -5.12262 31.6723 7.24424
RightHand  -1.01519 1.63454 -16.86
LeftUpLeg  -14.4765 5.20417 3.51228
LeftLeg  6.36629 0.0153505 -1.7693
LeftFoot  6.38284 0.523203 -3.60853
LeftToes  1.71891e-010 -1.5102e-010 2.10556e-011
129
root  -40.8596 40.2058 28.3348 -7.59659 1.67948 -3.81078
RightUpLeg  5.41476 -11.6117 -1.12069
RightLeg  19.4142 3.91812 2.24968
RightFoot  -12.6866 -0.11386 -2.45393
RightToes  -1.74624e-010 0 -3.6325e-017
Spine  1.05659 0.251285 11.0718
Spine1  11.7284 1.00877 -2.32301
HEad  -9.12692 4.85454 -5.02022
LeftShoulder1  9.23888 -12.6456 -49.9409
LeftArm  -9.26355 23.5366 -28.7528
LeftForeArm  26.6881 -8.89336 -5.50104
LeftHand  -0.244104 0.0205437 5.32207
RightShoulder  6.40852 9.8823 41.6347
RightArm  6.91726 -4.8211 32.2226
RightForeArm  -6.40874 29.9035 6.85525
RightHand  -1.0802 2.018 -17.023
LeftUpLeg  -13.2813 5.46623 3.83377
LeftLeg  5.90766 0.0822052 -2.2173
LeftFoot  8.5566 0.249512 -1.75528
LeftToes  1.71891e-010 -1.5102e-010 2.10556e-011
130
root  -40.6998 40.0493 29.4077 -7.86876 0.928239 -3.54767
RightUpLeg  6.10235 -10.1659 -1.23867
RightLeg  21.9574 3.35546 1.26313
RightFoot  -14.404 -0.116818 -0.897494
RightToes  -1.74624e-010 0 -3.6325e-017
Spine  0.91046 0.26207 9.21291
Spine1  11.891 0.77755 -1.52015
HEad  -8.80375 5.33169 -4.74535
LeftShoulder1  9.10741 -12.4018 -49.9835
LeftArm  -10.6094 25.1357 -29.4762
LeftForeArm  25.0676 -7.50651 -5.032
LeftHand  -0.244104 0.0205437 5.32207
RightShoulder  6.61586 10.0117 42.6352
RightArm  9.51493 -5.52027 31.5519
RightForeArm  -7.77139 27.223 6.23258
RightHand  -1.14824 2.49439 -17.018
LeftUpLeg  -12.679 6.42927 3.06783
LeftLeg  8.06533 0.0615856 -2.04917
LeftFoot  10.4264 -0.37104 1.61814
LeftToes  1.71891e-010 -1.5102e-010 2.10556e-011
131
root  -40.5556 39.9798 30.3537 -8.10454 0.223379 -2.33937
RightUpLeg  5.04815 -6.82703 -2.10167
RightLeg  26.9464 1.29445 0.47996
RightFoot  -14.5308 -0.0338997 2.54812
RightToes  -1.74624e-010 0 -3.6325e-017
Spine  1.50575 0.284079 6.01323
Spine1  11.5717 0.51156 -0.513295
HEad  -8.67918 5.80766 -4.46686
LeftShoulder1  8.95558 -12.1309 -49.9994
LeftArm  -11.7598 26.2027 -29.8804
LeftForeArm  22.3771 -6.83089 -4.6159
LeftHand  -0.244104 0.0205437 5.32207
RightShoulder  6.89234 10.196 43.8918
RightArm  10.9996 -6.35788 30.8813
RightForeArm  -7.772 23.2053 5.59199
RightHand  -1.1998 2.90346 -16.9197
LeftUpLeg  -12.303 7.25594 1.4585
LeftLeg  10.7878 0.128587 -1.55899
LeftFoot  9.87611 -0.873704 4.35449
LeftToes  1.71891e-010 -1.5102e-010 2.10556e-011
132
root  -40.4062 40.0081 31.1625 -8.16453 -0.529985 -0.808074
RightUpLeg  1.77976 -4.96909 -3.78915
RightLeg  34.5757 0.506484 0.127461
RightFoot  -10.7775 -0.118365 6.61876
RightToes  -1.74624e-010 0 -3.6325e-017
Spine  2.59796 0.384159 3.28248
Spine1  10.7674 0.544495 -0.354943
HEad  -8.54826 5.97278 -4.30165
LeftShoulder1  8.76022 -11.929 -49.5496
LeftArm  -12.9449 26.555 -29.9466
LeftForeArm  20.0198 -6.66279 -4.20657
LeftHand  -0.244104 0.0205437 5.32207
RightShoulder  7.04352 10.2605 44.6819
RightArm  7.65485 -7.7936 30.7166
RightForeArm  -4.19393 18.3874 6.13688
RightHand  -1.19804 3.01606 -16.6765
LeftUpLeg  -11.6928 8.35652 -0.119539
LeftLeg  12.5917 0.0629272 -1.4165
LeftFoot  7.4439 -0.84805 4.82907
LeftToes  1.71891e-010 -1.5102e-010 2.10556e-011
133
root  -40.2263 40.0878 31.8663 -8.01968 -1.52284 0.254373
RightUpLeg  -3.02046 -4.14614 -5.25103
RightLeg  42.9233 -0.145006 -0.457344
RightFoot  -3.88657 -0.652897 9.64122
RightToes  -1.74624e-010 0 -3.6325e-017
Spine  3.80797 0.587647 2.40129
Spine1  9.77283 0.984284 -1.40869
HEad  -8.52793 5.68337 -4.50432
LeftShoulder1  8.41326 -11.6473 -48.4661
LeftArm  -14.3383 26.1575 -29.7954
LeftForeArm  18.5192 -6.9347 -3.73432
LeftHand  -0.244104 0.0205437 5.32207
RightShoulder  6.96215 10.1297 44.5831
RightArm  0.880437 -10.088 30.6586
RightForeArm  0.453645 14.4776 7.09144
RightHand  -1.13636 2.8483 -16.15
LeftUpLeg  -10.6486 9.18936 -0.878797
LeftLeg  12.9888 0.502114 -1.75452
LeftFoot  5.37828 -0.637484 4.11753
LeftToes  1.71891e-010 -1.5102e-010 2.10556e-011
134
root  -40.0216 40.1947 32.5038 -7.74992 -2.68247 0.626659
RightUpLeg  -7.79847 -3.55041 -5.88416
RightLeg  49.4009 -1.15496 -1.7914
RightFoot  1.33331 -1.20151 10.947
RightToes  -1.74624e-010 0 -3.6325e-017
Spine  4.87249 0.808475 2.91215
Spine1  8.93262 1.52735 -2.79292
HEad  -8.89184 5.18584 -5.14782
LeftShoulder1  7.81983 -11.0173 -46.9745
LeftArm  -15.9897 25.117 -29.3804
LeftForeArm  17.3285 -7.70827 -3.24021
LeftHand  -0.244104 0.0205437 5.32207
RightShoulder  6.72696 9.89362 43.8005
RightArm  -3.70389 -12.7026 29.9127
RightForeArm  1.74112 12.495 7.13159
RightHand  -1.10623 2.84458 -15.7414
LeftUpLeg  -9.44744 8.74259 -0.794776
LeftLeg  12.5643 2.19758 -2.23354
LeftFoot  4.36914 -0.574702 3.9751
LeftToes  1.71891e-010 -1.5102e-010 2.10556e-011
135
root  -39.8278 40.3867 33.1141 -7.37766 -3.51405 0.436385
RightUpLeg  -11.3403 -3.26894 -5.72115
RightLeg  52.183 -2.00184 -3.13412
RightFoot  1.96647 -1.19676 10.3232
RightToes  -1.74624e-010 0 -3.6325e-017
Spine  5.56866 0.851376 3.63441
Spine1  8.2782 1.71843 -3.2362
HEad  -9.47913 4.85507 -5.87098
LeftShoulder1  7.00559 -9.99747 -45.2012
LeftArm  -17.6847 23.8175 -28.4725
LeftForeArm  16.2912 -8.97235 -2.79837
LeftHand  -0.244104 0.0205437 5.32207
RightShoulder  6.40464 9.61148 42.5285
RightArm  -7.04458 -14.8371 28.1048
RightForeArm  2.31072 11.235 6.78967
RightHand  -1.1657 3.21575 -15.8758
LeftUpLeg  -8.06939 7.57502 -0.285464
LeftLeg  11.3074 4.10377 -2.69921
LeftFoot  3.89045 -0.614229 4.41469
LeftToes  1.71891e-010 -1.5102e-010 2.10556e-011
136
root  -39.6896 40.6065 33.7067 -6.84824 -3.72303 0.0583871
RightUpLeg  -13.4655 -3.34431 -5.20741
RightLeg  50.832 -2.60938 -3.79748
RightFoot  -0.376161 -0.836479 8.65718
RightToes  -1.74624e-010 0 -3.6325e-017
Spine  5.81054 0.698151 3.73464
Spine1  7.65833 1.45109 -2.69534
HEad  -9.78094 4.86796 -6.1807
LeftShoulder1  6.10667 -8.84809 -42.9508
LeftArm  -19.002 22.7563 -26.797
LeftForeArm  16.0769 -10.4123 -2.44928
LeftHand  -0.244104 0.0205437 5.32207
RightShoulder  5.92024 9.16233 40.5649
RightArm  -10.4068 -16.304 25.7323
RightForeArm  3.03299 9.6458 6.14761
RightHand  -1.24873 3.61546 -16.2555
LeftUpLeg  -6.75909 6.6598 0.239423
LeftLeg  9.67132 5.13024 -3.25121
LeftFoot  3.45926 -0.617778 4.59126
LeftToes  1.71891e-010 -1.5102e-010 2.10556e-011
137
root  -39.6033 40.7568 34.2838 -6.21534 -3.58608 -0.294941
RightUpLeg  -14.2614 -3.22124 -4.69748
RightLeg  45.8001 -3.69958 -4.35869
RightFoot  -3.14217 -0.55219 7.41205
RightToes  -1.74624e-010 0 -3.6325e-017
Spine  5.73565 0.457257 3.44487
Spine1  6.933 1.01832 -2.09459
HEad  -9.56684 5.15302 -5.89746
LeftShoulder1  5.24329 -7.81514 -40.0311
LeftArm  -19.6672 22.2031 -24.2155
LeftForeArm  16.7616 -11.5505 -2.20411
LeftHand  -0.244104 0.0205437 5.32207
RightShoulder  5.2273 8.42293 37.7849
RightArm  -13.1771 -17.3206 23.1675
RightForeArm  2.15175 7.97081 5.35481
RightHand  -1.27339 3.7323 -16.3634
LeftUpLeg  -5.86446 5.99464 0.65755
LeftLeg  8.52503 5.60053 -3.75089
LeftFoot  3.0058 -0.583048 4.48548
LeftToes  1.71891e-010 -1.5102e-010 2.10556e-011
138
root  -39.5438 40.8398 34.8532 -5.66554 -3.42367 -0.540085
RightUpLeg  -13.5993 -2.62717 -4.40044
RightLeg  37.7119 -5.72983 -4.97295
RightFoot  -5.4673 -0.388279 6.84142
RightToes  -1.74624e-010 0 -3.6325e-017
Spine  5.58574 0.182759 3.11018
Spine1  6.10124 0.625155 -1.87201
HEad  -9.02393 5.52259 -5.19732
LeftShoulder1  4.42423 -6.86815 -36.5043
LeftArm  -19.7144 22.0677 -20.863
LeftForeArm  17.2298 -12.1301 -2.05032
LeftHand  -0.244104 0.0205437 5.32207
RightShoulder  4.42959 7.46744 34.42
RightArm  -14.8185 -17.9279 20.1895
RightForeArm  -0.236758 6.75027 4.76814
RightHand  -1.24327 3.62054 -16.1763
LeftUpLeg  -5.28241 5.45927 0.89283
LeftLeg  8.09322 5.90194 -3.99209
LeftFoot  2.44733 -0.559961 4.50705
LeftToes  1.71891e-010 -1.5102e-010 2.10556e-011
139
root  -39.5248 40.8755 35.4253 -5.30594 -3.07523 -0.441256
RightUpLeg  -11.5675 -2.29898 -4.58731
RightLeg  27.5293 -7.17771 -4.30652
RightFoot  -6.59646 -0.310494 6.38479
RightToes  -1.74624e-010 0 -3.6325e-017
Spine  5.34214 -0.118464 2.23698
Spine1  5.34412 0.174372 -1.52849
HEad  -8.30904 5.78143 -4.40039
LeftShoulder1  3.60884 -5.81625 -32.6145
LeftArm  -19.2141 21.9125 -17.0008
LeftForeArm  16.6375 -12.1542 -1.99007
LeftHand  -0.244104 0.0205437 5.32207
RightShoulder  3.60381 6.3722 30.5282
RightArm  -15.4719 -18.0257 16.7702
RightForeArm  -1.99428 6.03997 4.45134
RightHand  -1.20167 3.48034 -15.887
LeftUpLeg  -4.82132 5.13811 0.746339
LeftLeg  8.24587 5.86616 -4.06658
LeftFoot  1.51895 -0.521788 4.54437
LeftToes  1.71891e-010 -1.5102e-010 2.10556e-011
140
root  -39.5553 40.8923 36.0072 -5.02418 -2.37087 0.0705802
RightUpLeg  -9.03192 -3.27829 -5.17148
RightLeg  17.7287 -5.56663 -2.25268
RightFoot  -4.92862 -0.321458 5.22792
RightToes  -1.74624e-010 0 -3.6325e-017
Spine  4.68525 -0.389699 0.739868
Spine1  4.91324 -0.34098 -0.680391
HEad  -7.49758 5.94301 -3.45789
LeftShoulder1  2.82508 -4.61432 -28.6398
LeftArm  -18.2585 21.1483 -12.8498
LeftForeArm  15.4597 -11.7134 -2.04176
LeftHand  -0.244104 0.0205437 5.32207
RightShoulder  2.69728 4.95853 25.7459
RightArm  -15.2948 -17.6758 13.5377
RightForeArm  -2.20378 5.65256 4.32072
RightHand  -1.18041 3.51292 -15.5597
LeftUpLeg  -4.25065 4.87876 0.189919
LeftLeg  8.30779 5.52974 -4.17831
LeftFoot  0.542573 -0.461803 4.4035
LeftToes  1.71891e-010 -1.5102e-010 2.10556e-011
